<svg width="24" height="24" viewBox="0 0 24 24" fill="none" xmlns="http://www.w3.org/2000/svg">
<g clip-path="url(#clip0_214_153)">
<path d="M12.0001 13C10.9001 13 9.95843 12.6083 9.1751 11.825C8.39177 11.0416 8.0001 10.1 8.0001 8.99998C8.0001 7.89998 8.39177 6.95831 9.1751 6.17498C9.95843 5.39165 10.9001 4.99998 12.0001 4.99998C13.1001 4.99998 14.0418 5.39165 14.8251 6.17498C15.6084 6.95831 16.0001 7.89998 16.0001 8.99998C16.0001 10.1 15.6084 11.0416 14.8251 11.825C14.0418 12.6083 13.1001 13 12.0001 13ZM4.0001 18.2C4.0001 17.65 4.14177 17.1333 4.4251 16.65C4.70843 16.1666 5.1001 15.8 5.6001 15.55C6.4501 15.1166 7.40843 14.75 8.4751 14.45C9.54177 14.15 10.7168 14 12.0001 14C13.2834 14 14.4584 14.15 15.5251 14.45C16.5918 14.75 17.5501 15.1166 18.4001 15.55C18.9001 15.8 19.2918 16.1666 19.5751 16.65C19.8584 17.1333 20.0001 17.65 20.0001 18.2V19C20.0001 19.55 19.8044 20.021 19.4131 20.413C19.0218 20.805 18.5508 21.0006 18.0001 21H6.0001C5.4501 21 4.97943 20.8043 4.5881 20.413C4.19677 20.0216 4.00077 19.5506 4.0001 19V18.2ZM3.8001 3.82498C3.43343 4.19165 3.00843 4.47898 2.5251 4.68698C2.04177 4.89498 1.5251 4.99931 0.975101 4.99998C0.691768 4.99998 0.454434 4.90398 0.263101 4.71198C0.0717678 4.51998 -0.0242322 4.28265 -0.0248989 3.99998C-0.0255656 3.71731 0.0704345 3.47998 0.263101 3.28798C0.455768 3.09598 0.692768 2.99998 0.974101 2.99998C1.25543 2.99998 1.51377 2.94598 1.7491 2.83798C1.98443 2.72998 2.19277 2.58398 2.3741 2.39998C2.55543 2.21598 2.6971 2.00765 2.7991 1.77498C2.9011 1.54231 2.95143 1.28398 2.9501 0.999979C2.94877 0.715979 3.04877 0.474312 3.2501 0.274979C3.45143 0.0756456 3.6931 -0.0243544 3.9751 -0.0250211C4.2571 -0.0256878 4.49477 0.0743122 4.6881 0.274979C4.88143 0.475646 4.9771 0.717312 4.9751 0.999979C4.9751 1.54998 4.8711 2.06665 4.6631 2.54998C4.4551 3.03331 4.16743 3.45831 3.8001 3.82498ZM6.6501 6.67498C5.91677 7.40831 5.06677 7.98331 4.1001 8.39998C3.13343 8.81665 2.09177 9.02498 0.975101 9.02498C0.691768 9.02498 0.454434 8.92898 0.263101 8.73698C0.0717678 8.54498 -0.0242322 8.30765 -0.0248989 8.02498C-0.0255656 7.74231 0.0704345 7.50498 0.263101 7.31298C0.455768 7.12098 0.693101 7.02498 0.975101 7.02498C1.8251 7.02498 2.61277 6.86665 3.3381 6.54998C4.06343 6.23331 4.69243 5.79998 5.2251 5.24998C5.75777 4.69998 6.18277 4.06665 6.5001 3.34998C6.81743 2.63331 6.97577 1.84998 6.9751 0.999979C6.9751 0.716646 7.0751 0.474979 7.2751 0.274979C7.4751 0.0749789 7.71677 -0.0250211 8.0001 -0.0250211C8.28343 -0.0250211 8.5211 0.0749789 8.7131 0.274979C8.9051 0.474979 9.00077 0.716646 9.0001 0.999979C9.0001 2.09998 8.79177 3.13765 8.3751 4.11298C7.95843 5.08831 7.38343 5.94231 6.6501 6.67498ZM17.3251 6.67498C16.5918 5.94165 16.0168 5.09165 15.6001 4.12498C15.1834 3.15831 14.9668 2.11665 14.9501 0.999979C14.9501 0.716646 15.0501 0.474979 15.2501 0.274979C15.4501 0.0749789 15.6918 -0.0250211 15.9751 -0.0250211C16.2584 -0.0250211 16.4961 0.0749789 16.6881 0.274979C16.8801 0.474979 16.9758 0.716646 16.9751 0.999979C16.9751 1.83331 17.1334 2.61265 17.4501 3.33798C17.7668 4.06331 18.2001 4.70065 18.7501 5.24998C19.3001 5.79931 19.9378 6.23265 20.6631 6.54998C21.3884 6.86731 22.1674 7.02565 23.0001 7.02498C23.2834 7.02498 23.5211 7.12065 23.7131 7.31198C23.9051 7.50331 24.0008 7.74098 24.0001 8.02498C23.9994 8.30898 23.9034 8.54665 23.7121 8.73798C23.5208 8.92931 23.2834 9.02498 23.0001 9.02498C21.8834 9.02498 20.8418 8.81665 19.8751 8.39998C18.9084 7.98331 18.0584 7.40831 17.3251 6.67498ZM20.1751 3.82498C19.8084 3.45831 19.5211 3.03331 19.3131 2.54998C19.1051 2.06665 18.9924 1.54998 18.9751 0.999979C18.9751 0.716646 19.0751 0.474979 19.2751 0.274979C19.4751 0.0749789 19.7168 -0.0250211 20.0001 -0.0250211C20.2834 -0.0250211 20.5211 0.0749789 20.7131 0.274979C20.9051 0.474979 21.0008 0.716646 21.0001 0.999979C20.9994 1.28331 21.0538 1.54165 21.1631 1.77498C21.2724 2.00831 21.4181 2.21665 21.6001 2.39998C21.7821 2.58331 21.9904 2.72931 22.2251 2.83798C22.4598 2.94665 22.7181 3.00065 23.0001 2.99998C23.2821 2.99931 23.5198 3.09531 23.7131 3.28798C23.9064 3.48065 24.0021 3.71798 24.0001 3.99998C23.9981 4.28198 23.9021 4.51965 23.7121 4.71298C23.5221 4.90631 23.2848 5.00198 23.0001 4.99998C22.4501 4.99998 21.9334 4.89598 21.4501 4.68798C20.9668 4.47998 20.5418 4.19231 20.1751 3.82498Z" fill="black"/>
</g>
<defs>
<clipPath id="clip0_214_153">
<rect width="24" height="24" fill="white"/>
</clipPath>
</defs>
</svg>
