<svg width="24" height="24" viewBox="0 0 24 24" fill="none" xmlns="http://www.w3.org/2000/svg">
<path d="M1 12.5H4.66667C5.31497 12.5 5.93673 12.2441 6.39515 11.7887C6.85357 11.3332 7.11111 10.7155 7.11111 10.0714V6.42857C7.11111 5.78447 7.36865 5.16676 7.82707 4.71131C8.28549 4.25587 8.90725 4 9.55556 4C10.2039 4 10.8256 4.25587 11.284 4.71131C11.7425 5.16676 12 5.78447 12 6.42857V18.5714C12 19.2155 12.2575 19.8332 12.716 20.2887C13.1744 20.7441 13.7961 21 14.4444 21C15.0928 21 15.7145 20.7441 16.1729 20.2887C16.6313 19.8332 16.8889 19.2155 16.8889 18.5714V14.9286C16.8889 14.2845 17.1464 13.6668 17.6049 13.2113C18.0633 12.7559 18.685 12.5 19.3333 12.5H23" stroke="black" stroke-width="1.5" stroke-linecap="round" stroke-linejoin="round"/>
</svg>
